<mxfile host="app.diagrams.net" modified="2024-05-29T06:24:35.802Z" agent="Mozilla/5.0 (Windows NT 10.0; Win64; x64) AppleWebKit/537.36 (KHTML, like Gecko) Chrome/124.0.0.0 Safari/537.36" etag="CPkRWVWfqWlI0xi-G1Pi" version="24.4.9" type="github">
  <diagram name="Page-1" id="52a04d89-c75d-2922-d76d-85b35f80e030">
    <mxGraphModel dx="1434" dy="738" grid="1" gridSize="10" guides="1" tooltips="1" connect="1" arrows="1" fold="1" page="1" pageScale="1" pageWidth="1100" pageHeight="850" background="none" math="0" shadow="0">
      <root>
        <mxCell id="0" />
        <mxCell id="1" parent="0" />
        <mxCell id="20GmnvwwCzmTvz7u2Msf-17" value="Testbench Monitor" style="whiteSpace=wrap;html=1;align=left;verticalAlign=top;fillColor=#dae8fc;strokeColor=#6c8ebf;" vertex="1" parent="1">
          <mxGeometry x="320" y="230" width="280" height="250" as="geometry" />
        </mxCell>
        <mxCell id="21ea969265ad0168-30" value="DAC1 Monitor Queue" style="html=1;rounded=0;shadow=0;comic=0;labelBackgroundColor=none;strokeWidth=2;fontFamily=Verdana;fontSize=12;align=center;shape=mxgraph.ios7ui.horLines;" parent="1" vertex="1">
          <mxGeometry x="430" y="263" width="160" height="50" as="geometry" />
        </mxCell>
        <mxCell id="17472293e6e8944d-29" value="DAC1" style="whiteSpace=wrap;html=1;rounded=0;shadow=0;comic=0;labelBackgroundColor=none;strokeWidth=1;fontFamily=Verdana;fontSize=12;align=center;fillColor=#B3B3B3;fillStyle=hatch;opacity=60;" parent="1" vertex="1">
          <mxGeometry x="720" y="57" width="120" height="50" as="geometry" />
        </mxCell>
        <mxCell id="1fdf3b25b50cf41e-27" style="html=1;labelBackgroundColor=none;startFill=1;startSize=8;endFill=1;endSize=8;fontFamily=Verdana;fontSize=12;strokeColor=default;startArrow=classicThin;endArrow=block;" parent="1" source="17472293e6e8944d-30" target="1fdf3b25b50cf41e-1" edge="1">
          <mxGeometry relative="1" as="geometry" />
        </mxCell>
        <mxCell id="20GmnvwwCzmTvz7u2Msf-1" value="&lt;font style=&quot;font-size: 13px;&quot;&gt;&lt;b&gt;AXI-S&lt;/b&gt;&lt;/font&gt;&lt;div style=&quot;font-size: 13px;&quot;&gt;&lt;font style=&quot;font-size: 13px;&quot;&gt;tdata&lt;/font&gt;&lt;/div&gt;&lt;div style=&quot;font-size: 13px;&quot;&gt;&lt;font style=&quot;font-size: 13px;&quot;&gt;tvalid&lt;/font&gt;&lt;/div&gt;&lt;div style=&quot;font-size: 13px;&quot;&gt;&lt;font style=&quot;font-size: 13px;&quot;&gt;tready&lt;/font&gt;&lt;/div&gt;&lt;div style=&quot;font-size: 13px;&quot;&gt;&lt;font style=&quot;font-size: 13px;&quot;&gt;tlast&lt;/font&gt;&lt;/div&gt;" style="edgeLabel;html=1;align=center;verticalAlign=middle;resizable=0;points=[];" vertex="1" connectable="0" parent="1fdf3b25b50cf41e-27">
          <mxGeometry x="-0.408" y="2" relative="1" as="geometry">
            <mxPoint x="56" y="2" as="offset" />
          </mxGeometry>
        </mxCell>
        <mxCell id="17472293e6e8944d-30" value="Modulator Driver" style="whiteSpace=wrap;html=1;rounded=0;shadow=0;comic=0;labelBackgroundColor=none;strokeWidth=1;fontFamily=Verdana;fontSize=12;align=center;fillColor=#dae8fc;strokeColor=#6c8ebf;" parent="1" vertex="1">
          <mxGeometry x="60" y="55" width="120" height="50" as="geometry" />
        </mxCell>
        <mxCell id="1fdf3b25b50cf41e-28" style="edgeStyle=none;html=1;labelBackgroundColor=none;startFill=0;startSize=8;endFill=1;endSize=8;fontFamily=Verdana;fontSize=12;" parent="1" source="1fdf3b25b50cf41e-1" target="17472293e6e8944d-29" edge="1">
          <mxGeometry relative="1" as="geometry" />
        </mxCell>
        <mxCell id="20GmnvwwCzmTvz7u2Msf-3" value="AXI-S&lt;div&gt;tdata&lt;/div&gt;&lt;div&gt;tvalid&lt;/div&gt;" style="edgeLabel;html=1;align=center;verticalAlign=middle;resizable=0;points=[];" vertex="1" connectable="0" parent="1fdf3b25b50cf41e-28">
          <mxGeometry x="-0.133" y="-3" relative="1" as="geometry">
            <mxPoint x="15" y="1" as="offset" />
          </mxGeometry>
        </mxCell>
        <mxCell id="1fdf3b25b50cf41e-1" value="DUT" style="swimlane;html=1;fontStyle=0;childLayout=stackLayout;horizontal=1;startSize=36;fillColor=#d5e8d4;horizontalStack=0;resizeParent=1;resizeLast=0;collapsible=1;marginBottom=0;swimlaneFillColor=default;align=center;rounded=1;shadow=0;comic=0;labelBackgroundColor=none;strokeWidth=1;fontFamily=Verdana;fontSize=12;arcSize=4;strokeColor=#82b366;" parent="1" vertex="1">
          <mxGeometry x="430" y="49" width="140" height="62" as="geometry">
            <mxRectangle x="430" y="49" width="70" height="36" as="alternateBounds" />
          </mxGeometry>
        </mxCell>
        <mxCell id="1fdf3b25b50cf41e-2" value="FSM" style="text;html=1;strokeColor=none;fillColor=none;spacingLeft=4;spacingRight=4;whiteSpace=wrap;overflow=hidden;rotatable=0;points=[[0,0.5],[1,0.5]];portConstraint=eastwest;align=center;" parent="1fdf3b25b50cf41e-1" vertex="1">
          <mxGeometry y="36" width="140" height="26" as="geometry" />
        </mxCell>
        <mxCell id="20GmnvwwCzmTvz7u2Msf-4" style="edgeStyle=orthogonalEdgeStyle;html=1;labelBackgroundColor=none;startFill=0;startSize=8;endFill=1;endSize=8;fontFamily=Verdana;fontSize=12;exitX=1;exitY=0.231;exitDx=0;exitDy=0;exitPerimeter=0;entryX=-0.001;entryY=0.587;entryDx=0;entryDy=0;entryPerimeter=0;" edge="1" target="20GmnvwwCzmTvz7u2Msf-6" parent="1" source="1fdf3b25b50cf41e-2">
          <mxGeometry relative="1" as="geometry">
            <mxPoint x="570" y="147" as="sourcePoint" />
            <Array as="points">
              <mxPoint x="610" y="91" />
              <mxPoint x="610" y="152" />
            </Array>
          </mxGeometry>
        </mxCell>
        <mxCell id="20GmnvwwCzmTvz7u2Msf-5" value="AXI-S&lt;div&gt;tdata&lt;/div&gt;&lt;div&gt;tvalid&lt;/div&gt;" style="edgeLabel;html=1;align=center;verticalAlign=middle;resizable=0;points=[];" vertex="1" connectable="0" parent="20GmnvwwCzmTvz7u2Msf-4">
          <mxGeometry x="-0.133" y="-3" relative="1" as="geometry">
            <mxPoint as="offset" />
          </mxGeometry>
        </mxCell>
        <mxCell id="20GmnvwwCzmTvz7u2Msf-6" value="DAC2" style="whiteSpace=wrap;html=1;rounded=0;shadow=0;comic=0;labelBackgroundColor=none;strokeWidth=1;fontFamily=Verdana;fontSize=12;align=center;fillColor=#B3B3B3;fillStyle=hatch;opacity=60;" vertex="1" parent="1">
          <mxGeometry x="720" y="123" width="120" height="50" as="geometry" />
        </mxCell>
        <mxCell id="20GmnvwwCzmTvz7u2Msf-9" value="DAC3" style="whiteSpace=wrap;html=1;rounded=0;shadow=0;comic=0;labelBackgroundColor=none;strokeWidth=1;fontFamily=Verdana;fontSize=12;align=center;fillColor=#B3B3B3;fillStyle=hatch;opacity=60;" vertex="1" parent="1">
          <mxGeometry x="720" y="190" width="120" height="50" as="geometry" />
        </mxCell>
        <mxCell id="20GmnvwwCzmTvz7u2Msf-10" style="edgeStyle=orthogonalEdgeStyle;html=1;labelBackgroundColor=none;startFill=0;startSize=8;endFill=1;endSize=8;fontFamily=Verdana;fontSize=12;exitX=1;exitY=0.5;exitDx=0;exitDy=0;entryX=0;entryY=0.5;entryDx=0;entryDy=0;" edge="1" target="20GmnvwwCzmTvz7u2Msf-9" parent="1" source="1fdf3b25b50cf41e-2">
          <mxGeometry relative="1" as="geometry">
            <mxPoint x="570" y="214" as="sourcePoint" />
            <Array as="points">
              <mxPoint x="580" y="98" />
              <mxPoint x="580" y="215" />
            </Array>
          </mxGeometry>
        </mxCell>
        <mxCell id="20GmnvwwCzmTvz7u2Msf-11" value="AXI-S&lt;div&gt;tdata&lt;/div&gt;&lt;div&gt;tvalid&lt;/div&gt;" style="edgeLabel;html=1;align=center;verticalAlign=middle;resizable=0;points=[];" vertex="1" connectable="0" parent="20GmnvwwCzmTvz7u2Msf-10">
          <mxGeometry x="-0.133" y="-3" relative="1" as="geometry">
            <mxPoint as="offset" />
          </mxGeometry>
        </mxCell>
        <mxCell id="20GmnvwwCzmTvz7u2Msf-15" value="DAC2 Monitor Queue" style="html=1;rounded=0;shadow=0;comic=0;labelBackgroundColor=none;strokeWidth=2;fontFamily=Verdana;fontSize=12;align=center;shape=mxgraph.ios7ui.horLines;" vertex="1" parent="1">
          <mxGeometry x="430" y="330" width="160" height="50" as="geometry" />
        </mxCell>
        <mxCell id="20GmnvwwCzmTvz7u2Msf-16" value="DAC3 Monitor Queue" style="html=1;rounded=0;shadow=0;comic=0;labelBackgroundColor=none;strokeWidth=2;fontFamily=Verdana;fontSize=12;align=center;shape=mxgraph.ios7ui.horLines;" vertex="1" parent="1">
          <mxGeometry x="430" y="400" width="160" height="50" as="geometry" />
        </mxCell>
        <mxCell id="20GmnvwwCzmTvz7u2Msf-18" style="edgeStyle=orthogonalEdgeStyle;html=1;labelBackgroundColor=none;startFill=0;startSize=8;endFill=1;endSize=8;fontFamily=Verdana;fontSize=12;entryX=0;entryY=0.5;entryDx=0;entryDy=0;" edge="1" parent="1" target="20GmnvwwCzmTvz7u2Msf-17">
          <mxGeometry relative="1" as="geometry">
            <mxPoint x="370" y="80" as="sourcePoint" />
            <mxPoint x="380" y="290" as="targetPoint" />
            <Array as="points">
              <mxPoint x="370" y="173" />
              <mxPoint x="240" y="173" />
              <mxPoint x="240" y="355" />
            </Array>
          </mxGeometry>
        </mxCell>
        <mxCell id="20GmnvwwCzmTvz7u2Msf-20" value="" style="edgeStyle=none;orthogonalLoop=1;jettySize=auto;html=1;rounded=0;" edge="1" parent="1">
          <mxGeometry width="80" relative="1" as="geometry">
            <mxPoint x="350" y="60" as="sourcePoint" />
            <mxPoint x="430" y="60" as="targetPoint" />
            <Array as="points" />
          </mxGeometry>
        </mxCell>
        <mxCell id="20GmnvwwCzmTvz7u2Msf-21" value="dac_sel [1:0]" style="edgeLabel;html=1;align=center;verticalAlign=middle;resizable=0;points=[];" vertex="1" connectable="0" parent="20GmnvwwCzmTvz7u2Msf-20">
          <mxGeometry x="-0.4792" y="-1" relative="1" as="geometry">
            <mxPoint x="18" y="-11" as="offset" />
          </mxGeometry>
        </mxCell>
        <mxCell id="20GmnvwwCzmTvz7u2Msf-22" value="" style="edgeStyle=none;orthogonalLoop=1;jettySize=auto;html=1;rounded=0;entryX=0.31;entryY=-0.003;entryDx=0;entryDy=0;entryPerimeter=0;" edge="1" parent="1">
          <mxGeometry width="80" relative="1" as="geometry">
            <mxPoint x="385" y="60" as="sourcePoint" />
            <mxPoint x="384.89999999999986" y="229.25" as="targetPoint" />
            <Array as="points" />
          </mxGeometry>
        </mxCell>
        <mxCell id="20GmnvwwCzmTvz7u2Msf-25" style="edgeStyle=orthogonalEdgeStyle;rounded=0;orthogonalLoop=1;jettySize=auto;html=1;exitX=1;exitY=0.5;exitDx=0;exitDy=0;" edge="1" parent="1" source="20GmnvwwCzmTvz7u2Msf-23" target="20GmnvwwCzmTvz7u2Msf-15">
          <mxGeometry relative="1" as="geometry" />
        </mxCell>
        <mxCell id="20GmnvwwCzmTvz7u2Msf-26" style="edgeStyle=orthogonalEdgeStyle;rounded=0;orthogonalLoop=1;jettySize=auto;html=1;exitX=0.983;exitY=0.938;exitDx=0;exitDy=0;exitPerimeter=0;" edge="1" parent="1" source="20GmnvwwCzmTvz7u2Msf-23" target="20GmnvwwCzmTvz7u2Msf-16">
          <mxGeometry relative="1" as="geometry" />
        </mxCell>
        <mxCell id="20GmnvwwCzmTvz7u2Msf-23" value="beam_mux model" style="whiteSpace=wrap;html=1;align=left;verticalAlign=top;" vertex="1" parent="1">
          <mxGeometry x="330" y="275" width="80" height="160" as="geometry" />
        </mxCell>
        <mxCell id="20GmnvwwCzmTvz7u2Msf-24" style="edgeStyle=orthogonalEdgeStyle;rounded=0;orthogonalLoop=1;jettySize=auto;html=1;" edge="1" parent="1" target="21ea969265ad0168-30">
          <mxGeometry relative="1" as="geometry">
            <mxPoint x="410" y="291" as="sourcePoint" />
            <Array as="points">
              <mxPoint x="410" y="291" />
            </Array>
          </mxGeometry>
        </mxCell>
        <mxCell id="20GmnvwwCzmTvz7u2Msf-27" value="Scoreboard" style="whiteSpace=wrap;html=1;align=left;verticalAlign=top;fillColor=#dae8fc;strokeColor=#6c8ebf;" vertex="1" parent="1">
          <mxGeometry x="600" y="230" width="110" height="250" as="geometry" />
        </mxCell>
        <mxCell id="20GmnvwwCzmTvz7u2Msf-32" style="edgeStyle=orthogonalEdgeStyle;rounded=0;orthogonalLoop=1;jettySize=auto;html=1;exitX=1;exitY=0.5;exitDx=0;exitDy=0;entryX=0;entryY=0.5;entryDx=0;entryDy=0;" edge="1" parent="1" target="20GmnvwwCzmTvz7u2Msf-36">
          <mxGeometry relative="1" as="geometry">
            <mxPoint x="589" y="355" as="sourcePoint" />
            <mxPoint x="609" y="355" as="targetPoint" />
          </mxGeometry>
        </mxCell>
        <mxCell id="20GmnvwwCzmTvz7u2Msf-33" style="edgeStyle=orthogonalEdgeStyle;rounded=0;orthogonalLoop=1;jettySize=auto;html=1;exitX=0.983;exitY=0.938;exitDx=0;exitDy=0;exitPerimeter=0;entryX=0;entryY=0.5;entryDx=0;entryDy=0;" edge="1" parent="1" target="20GmnvwwCzmTvz7u2Msf-37">
          <mxGeometry relative="1" as="geometry">
            <mxPoint x="588" y="425" as="sourcePoint" />
            <mxPoint x="609" y="425" as="targetPoint" />
          </mxGeometry>
        </mxCell>
        <mxCell id="20GmnvwwCzmTvz7u2Msf-34" style="edgeStyle=orthogonalEdgeStyle;rounded=0;orthogonalLoop=1;jettySize=auto;html=1;entryX=0;entryY=0.5;entryDx=0;entryDy=0;exitX=1.003;exitY=0.528;exitDx=0;exitDy=0;exitPerimeter=0;" edge="1" parent="1" source="21ea969265ad0168-30" target="20GmnvwwCzmTvz7u2Msf-35">
          <mxGeometry relative="1" as="geometry">
            <mxPoint x="589" y="291" as="sourcePoint" />
            <mxPoint x="609" y="291" as="targetPoint" />
            <Array as="points">
              <mxPoint x="610" y="289" />
            </Array>
          </mxGeometry>
        </mxCell>
        <mxCell id="20GmnvwwCzmTvz7u2Msf-35" value="comp" style="whiteSpace=wrap;html=1;" vertex="1" parent="1">
          <mxGeometry x="620" y="266" width="40" height="47" as="geometry" />
        </mxCell>
        <mxCell id="20GmnvwwCzmTvz7u2Msf-36" value="comp" style="whiteSpace=wrap;html=1;" vertex="1" parent="1">
          <mxGeometry x="635" y="331.5" width="40" height="47" as="geometry" />
        </mxCell>
        <mxCell id="20GmnvwwCzmTvz7u2Msf-37" value="comp" style="whiteSpace=wrap;html=1;" vertex="1" parent="1">
          <mxGeometry x="660" y="402" width="40" height="47" as="geometry" />
        </mxCell>
        <mxCell id="20GmnvwwCzmTvz7u2Msf-38" value="" style="edgeStyle=none;orthogonalLoop=1;jettySize=auto;html=1;rounded=0;entryX=0.25;entryY=0;entryDx=0;entryDy=0;" edge="1" parent="1" target="20GmnvwwCzmTvz7u2Msf-35">
          <mxGeometry width="80" relative="1" as="geometry">
            <mxPoint x="630.1" y="80" as="sourcePoint" />
            <mxPoint x="629.9999999999999" y="249.25" as="targetPoint" />
            <Array as="points" />
          </mxGeometry>
        </mxCell>
        <mxCell id="20GmnvwwCzmTvz7u2Msf-39" value="" style="edgeStyle=none;orthogonalLoop=1;jettySize=auto;html=1;rounded=0;entryX=0.874;entryY=0.016;entryDx=0;entryDy=0;entryPerimeter=0;" edge="1" parent="1" target="20GmnvwwCzmTvz7u2Msf-36">
          <mxGeometry width="80" relative="1" as="geometry">
            <mxPoint x="670" y="153" as="sourcePoint" />
            <mxPoint x="670" y="324" as="targetPoint" />
            <Array as="points" />
          </mxGeometry>
        </mxCell>
        <mxCell id="20GmnvwwCzmTvz7u2Msf-40" value="" style="edgeStyle=none;orthogonalLoop=1;jettySize=auto;html=1;rounded=0;entryX=0.75;entryY=0;entryDx=0;entryDy=0;" edge="1" parent="1" target="20GmnvwwCzmTvz7u2Msf-37">
          <mxGeometry width="80" relative="1" as="geometry">
            <mxPoint x="690.1" y="215" as="sourcePoint" />
            <mxPoint x="690" y="401" as="targetPoint" />
            <Array as="points" />
          </mxGeometry>
        </mxCell>
      </root>
    </mxGraphModel>
  </diagram>
</mxfile>
